<svg width="320" height="107" viewBox="0 0 320 107" fill="none" xmlns="http://www.w3.org/2000/svg">
<g clip-path="url(#clip0_2_37402)">
<path d="M49.3571 49.9785L59.1489 40.1907L68.9448 49.9865L74.6391 44.2882L59.1489 28.7941L43.6588 44.2842L49.3571 49.9785Z" fill="#0B1133" fill-opacity="0.3"/>
<path d="M33.9371 54.0038L39.6333 48.3076L45.3295 54.0038L39.6333 59.7L33.9371 54.0038Z" fill="#0B1133" fill-opacity="0.3"/>
<path d="M49.3586 58.0297L59.1505 67.8216L68.9463 58.0258L74.6446 63.7161L74.6406 63.7201L59.1505 79.2142L43.6603 63.728L43.6523 63.7201L49.3586 58.0297Z" fill="#0B1133" fill-opacity="0.3"/>
<path d="M72.9608 54.0082L78.657 48.312L84.3532 54.0082L78.657 59.7044L72.9608 54.0082Z" fill="#0B1133" fill-opacity="0.3"/>
<path d="M64.9271 54.0043L59.1492 48.2224L54.8765 52.4951L54.3827 52.9849L53.3712 53.9964L53.3633 54.0043L53.3712 54.0163L59.1492 59.7902L64.9271 54.0083L64.9311 54.0043H64.9271Z" fill="#0B1133" fill-opacity="0.3"/>
<path d="M93.2409 41.0048H105.633C108.707 41.0048 111.033 41.8012 112.61 43.394C113.204 43.9824 113.672 44.6853 113.986 45.4602C114.3 46.2351 114.454 47.0657 114.437 47.9017V47.9773C114.448 48.6622 114.353 49.3445 114.155 50.0002C113.978 50.5646 113.722 51.101 113.394 51.593C113.088 52.057 112.718 52.4753 112.295 52.8354C111.881 53.1913 111.429 53.4986 110.945 53.7513C112.339 54.2369 113.593 55.0573 114.597 56.1405C115.483 57.1493 115.927 58.543 115.927 60.3217V60.3973C115.952 61.5081 115.71 62.6088 115.222 63.6068C114.749 64.5264 114.055 65.3145 113.203 65.9005C112.239 66.5463 111.167 67.0118 110.037 67.2743C108.695 67.5926 107.319 67.7464 105.94 67.7322H93.2409V41.0048ZM104.391 51.812C105.463 51.8638 106.53 51.6332 107.485 51.143C107.857 50.9255 108.161 50.608 108.362 50.2266C108.564 49.8452 108.654 49.415 108.623 48.9848V48.9091C108.643 48.5127 108.563 48.1178 108.389 47.7607C108.216 47.4037 107.956 47.0961 107.632 46.8663C106.971 46.3964 106.017 46.1615 104.769 46.1615H98.971V51.812H104.391ZM105.956 62.5835C107.024 62.6433 108.087 62.3989 109.022 61.8786C109.386 61.6447 109.681 61.3173 109.875 60.9307C110.07 60.5442 110.158 60.1124 110.129 59.6805V59.6049C110.143 59.1944 110.057 58.7866 109.877 58.4173C109.697 58.048 109.429 57.7284 109.097 57.4864C108.412 56.9555 107.305 56.69 105.776 56.69H98.971V62.5835H105.956Z" fill="#0B1133" fill-opacity="0.3"/>
<path d="M123.309 41.0048H129.19V67.7402H123.309V41.0048Z" fill="#0B1133" fill-opacity="0.3"/>
<path d="M138.09 41.0048H143.514L156.049 57.4586V41.0048H161.855V67.7402H156.849L143.904 50.7448V67.7402H138.09V41.0048Z" fill="#0B1133" fill-opacity="0.3"/>
<path d="M179.662 40.8157H185.078L196.534 67.7423H190.394L187.949 61.7453H176.644L174.199 67.7423H168.202L179.662 40.8157ZM185.85 56.5527L182.29 47.8798L178.746 56.5527H185.85Z" fill="#0B1133" fill-opacity="0.3"/>
<path d="M202.893 41.0048H208.317L220.844 57.4586V41.0048H226.65V67.7402H221.645L208.699 50.7448V67.7402H202.893V41.0048Z" fill="#0B1133" fill-opacity="0.3"/>
<path d="M247.819 68.2125C245.944 68.2285 244.086 67.8656 242.356 67.1453C240.726 66.4726 239.248 65.4805 238.008 64.2277C236.768 62.9748 235.792 61.4864 235.136 59.8502C234.444 58.1388 234.094 56.3085 234.105 54.4625V54.3868C234.074 50.7482 235.474 47.243 238.003 44.6269C239.248 43.3489 240.737 42.3358 242.383 41.6483C244.174 40.9067 246.096 40.5368 248.034 40.5612C249.18 40.5526 250.324 40.6553 251.451 40.8678C252.414 41.05 253.356 41.3316 254.262 41.708C255.084 42.0539 255.865 42.4893 256.591 43.0062C257.3 43.5103 257.966 44.0724 258.582 44.6866L254.843 49.0031C253.888 48.1216 252.816 47.3754 251.658 46.7851C250.52 46.241 249.271 45.9684 248.01 45.9887C246.961 45.9775 245.921 46.1897 244.96 46.6113C243.998 47.0328 243.138 47.6541 242.435 48.4337C241.738 49.2113 241.193 50.1121 240.826 51.0897C240.443 52.1229 240.25 53.2171 240.257 54.3192V54.3948C240.253 55.4953 240.446 56.5876 240.826 57.6203C241.188 58.6014 241.728 59.5073 242.419 60.2922C243.116 61.0815 243.975 61.7119 244.937 62.1406C245.898 62.5693 246.941 62.7863 247.994 62.777C249.335 62.8193 250.666 62.5307 251.869 61.9368C253.014 61.3126 254.073 60.5416 255.018 59.6432L258.762 63.4261C258.101 64.1434 257.386 64.8091 256.623 65.4171C255.874 66.0095 255.061 66.5157 254.198 66.9263C253.279 67.3589 252.311 67.6785 251.315 67.878C250.164 68.1088 248.993 68.2208 247.819 68.2125Z" fill="#0B1133" fill-opacity="0.3"/>
<path d="M265.703 41.0048H285.825V46.2372H271.489V51.6607H284.112V56.8931H271.509V62.5078H286.024V67.7402H265.715L265.703 41.0048Z" fill="#0B1133" fill-opacity="0.3"/>
</g>
<defs>
<clipPath id="clip0_2_37402">
<rect width="252.079" height="50.4167" fill="white" transform="translate(33.9425 28.7928)"/>
</clipPath>
</defs>
</svg>
