<svg width="28" height="22" viewBox="0 0 28 22" fill="none" xmlns="http://www.w3.org/2000/svg">
<path d="M23.7187 1.84247C21.9061 0.981741 19.9681 0.356164 17.9421 0C17.6932 0.456621 17.4025 1.07078 17.2021 1.55936C15.0482 1.2306 12.9142 1.2306 10.8 1.55936C10.5996 1.07078 10.3023 0.456621 10.0513 0C8.02293 0.356164 6.08271 0.984023 4.27023 1.84704C0.614418 7.45434 -0.376613 12.9224 0.118903 18.3128C2.54363 20.1507 4.89347 21.2671 7.20367 21.9977C7.77407 21.2009 8.2828 20.3539 8.72106 19.4612C7.88639 19.1393 7.08696 18.7421 6.33156 18.2808C6.53197 18.1302 6.72798 17.9726 6.91738 17.8106C11.5246 19.9977 16.5304 19.9977 21.0826 17.8106C21.2741 17.9726 21.4701 18.1302 21.6683 18.2808C20.9107 18.7443 20.1091 19.1416 19.2744 19.4635C19.7127 20.3539 20.2192 21.2032 20.7918 22C23.1042 21.2694 25.4563 20.153 27.881 18.3128C28.4624 12.064 26.8878 6.64612 23.7187 1.84247ZM9.34871 14.9978C7.96567 14.9978 6.83149 13.6872 6.83149 12.0914C6.83149 10.4955 7.94144 9.18271 9.34871 9.18271C10.756 9.18271 11.8901 10.4932 11.8659 12.0914C11.8682 13.6872 10.756 14.9978 9.34871 14.9978ZM18.6512 14.9978C17.2682 14.9978 16.1339 13.6872 16.1339 12.0914C16.1339 10.4955 17.2439 9.18271 18.6512 9.18271C20.0584 9.18271 21.1926 10.4932 21.1684 12.0914C21.1684 13.6872 20.0584 14.9978 18.6512 14.9978Z" fill="url(#paint0_linear_472_2379)"/>
<defs>
<linearGradient id="paint0_linear_472_2379" x1="0" y1="11" x2="28" y2="11" gradientUnits="userSpaceOnUse">
<stop stop-color="#674EFF"/>
<stop offset="1" stop-color="#714EBD"/>
</linearGradient>
</defs>
</svg>
