<svg width="26" height="26" viewBox="0 0 26 26" fill="none" xmlns="http://www.w3.org/2000/svg">
<path d="M21.8012 21.8017H18.097V16.0005C18.097 14.6172 18.0723 12.8364 16.1704 12.8364C14.2411 12.8364 13.9459 14.3436 13.9459 15.8998V21.8013H10.2417V9.87177H13.7977V11.5021H13.8475C14.2034 10.8936 14.7177 10.393 15.3355 10.0536C15.9534 9.71429 16.6517 9.54888 17.3561 9.57503C21.1105 9.57503 21.8027 12.0446 21.8027 15.2573L21.8012 21.8017ZM6.06211 8.24108C5.63696 8.24116 5.22132 8.11516 4.86778 7.87901C4.51424 7.64287 4.23868 7.30718 4.07591 6.91441C3.91314 6.52163 3.87048 6.08941 3.95335 5.6724C4.03622 5.25539 4.24089 4.87232 4.54146 4.57163C4.84203 4.27094 5.22502 4.06613 5.64199 3.98311C6.05896 3.90009 6.49117 3.94258 6.88399 4.10521C7.2768 4.26785 7.61257 4.54332 7.84884 4.89679C8.0851 5.25026 8.21126 5.66585 8.21133 6.09102C8.21138 6.37332 8.15582 6.65286 8.04784 6.91369C7.93986 7.17452 7.78158 7.41153 7.58201 7.61118C7.38244 7.81084 7.14548 7.96922 6.88469 8.0773C6.62391 8.18538 6.3444 8.24103 6.06211 8.24108ZM7.91422 21.8017H4.20614V9.87177H7.91422V21.8017ZM23.6479 0.501703H2.34478C1.86126 0.496247 1.39533 0.682983 1.04942 1.02088C0.703502 1.35877 0.505901 1.82018 0.5 2.30371V23.6959C0.505699 24.1797 0.703184 24.6414 1.04909 24.9797C1.39499 25.3179 1.86102 25.505 2.34478 25.4999H23.6479C24.1326 25.5059 24.5999 25.3194 24.9472 24.9811C25.2945 24.6429 25.4933 24.1806 25.5 23.6959V2.30217C25.4931 1.81768 25.2941 1.35575 24.9469 1.01786C24.5996 0.679972 24.1324 0.493769 23.6479 0.500159" fill="url(#paint0_linear_472_2383)"/>
<defs>
<linearGradient id="paint0_linear_472_2383" x1="0.5" y1="13" x2="25.5" y2="13" gradientUnits="userSpaceOnUse">
<stop stop-color="#674EFF"/>
<stop offset="1" stop-color="#714EBD"/>
</linearGradient>
</defs>
</svg>
