<svg width="25" height="20" viewBox="0 0 25 20" fill="none" xmlns="http://www.w3.org/2000/svg">
<path d="M2.14963 8.60997C8.5933 5.78776 12.8891 3.92701 15.037 3.02806C21.1767 0.461066 22.451 0.0152357 23.2832 0.000131604C23.4662 -0.00281976 23.8737 0.0426656 24.1396 0.25881C24.3606 0.4411 24.4228 0.687627 24.4538 0.860716C24.4815 1.03363 24.5194 1.42773 24.4884 1.73536C24.1569 5.24923 22.7169 13.7762 21.9848 17.712C21.6775 19.3772 21.0662 19.9356 20.4757 19.9901C19.1912 20.1088 18.2174 19.1373 16.9742 18.3182C15.0301 17.0359 13.9319 16.238 12.043 14.987C9.86062 13.5412 11.2764 12.7464 12.5196 11.4478C12.8442 11.1079 18.5005 5.93603 18.6076 5.46693C18.6214 5.40825 18.6352 5.1895 18.504 5.07423C18.3762 4.9586 18.1863 4.99819 18.0482 5.02944C17.8513 5.07388 14.7469 7.13914 8.72452 11.2249C7.84396 11.8339 7.04627 12.1308 6.328 12.1151C5.54067 12.0981 4.02127 11.6665 2.89207 11.2978C1.51079 10.8454 0.409224 10.6061 0.505913 9.83773C0.554258 9.43774 1.10332 9.02836 2.14963 8.60997Z" fill="url(#paint0_linear_472_2377)"/>
<defs>
<linearGradient id="paint0_linear_472_2377" x1="0.5" y1="10" x2="24.5" y2="10" gradientUnits="userSpaceOnUse">
<stop stop-color="#674EFF"/>
<stop offset="1" stop-color="#714EBD"/>
</linearGradient>
</defs>
</svg>
