<svg width="34" height="24" viewBox="0 0 34 24" fill="none" xmlns="http://www.w3.org/2000/svg">
<path fill-rule="evenodd" clip-rule="evenodd" d="M29.8929 0.716516C31.3128 1.11077 32.4309 2.27245 32.8104 3.74768C33.5 6.42141 33.5 12 33.5 12C33.5 12 33.5 17.5785 32.8104 20.2525C32.4309 21.7275 31.3128 22.8892 29.8929 23.2836C27.3194 24 17 24 17 24C17 24 6.68062 24 4.10711 23.2836C2.6873 22.8892 1.56904 21.7275 1.18957 20.2525C0.5 17.5785 0.5 12 0.5 12C0.5 12 0.5 6.42141 1.18957 3.74768C1.56904 2.27245 2.6873 1.11077 4.10711 0.716516C6.68062 3.90998e-07 17 0 17 0C17 0 27.3194 3.90998e-07 29.8929 0.716516ZM22.2501 12L13.6251 17.0647V6.93489L22.2501 12Z" fill="url(#paint0_linear_472_2381)"/>
<defs>
<linearGradient id="paint0_linear_472_2381" x1="0.5" y1="12" x2="33.5" y2="12" gradientUnits="userSpaceOnUse">
<stop stop-color="#674EFF"/>
<stop offset="1" stop-color="#714EBD"/>
</linearGradient>
</defs>
</svg>
